<svg width="100" height="100" viewBox="0 0 100 100" fill="none" xmlns="http://www.w3.org/2000/svg">
<path d="M43.0718 12C46.151 6.66667 53.849 6.66667 56.9282 12L86.3731 63C89.4523 68.3333 85.6033 75 79.4449 75H20.5551C14.3967 75 10.5477 68.3333 13.6269 63L43.0718 12Z" fill="#F03939"/>
<path d="M50.2 53C49.4 53 48.7167 52.7333 48.15 52.2C47.5833 51.6333 47.2833 50.95 47.25 50.15L46.5 30.35C46.4667 29.5833 46.7167 28.9167 47.25 28.35C47.7833 27.7833 48.4333 27.5 49.2 27.5H51.9C52.6667 27.5 53.3167 27.7833 53.85 28.35C54.3833 28.9167 54.6333 29.5833 54.6 30.35L53.85 50.15C53.8167 50.95 53.5167 51.6333 52.95 52.2C52.3833 52.7333 51.7 53 50.9 53H50.2ZM51.4 57C52.1667 57 52.8167 57.2833 53.35 57.85C53.9167 58.4167 54.2 59.0833 54.2 59.85V61.15C54.2 61.9167 53.9167 62.5833 53.35 63.15C52.8167 63.7167 52.1667 64 51.4 64H49.7C48.9333 64 48.2667 63.7167 47.7 63.15C47.1667 62.5833 46.9 61.9167 46.9 61.15V59.85C46.9 59.0833 47.1667 58.4167 47.7 57.85C48.2667 57.2833 48.9333 57 49.7 57H51.4Z" fill="white"/>
</svg>
