<svg width="121" height="113" viewBox="0 0 121 113" fill="none" xmlns="http://www.w3.org/2000/svg">
<rect width="121" height="112" fill="#C4C4C4"/>
<path d="M62 61.25C74.1503 61.25 84 51.4003 84 39.25C84 27.0997 74.1503 17.25 62 17.25C49.8497 17.25 40 27.0997 40 39.25C40 51.4003 49.8497 61.25 62 61.25Z" fill="#E3E3E3"/>
<path d="M106 112.75V90.75C106 87.45 104.35 84.15 101.6 81.95C95.55 77 87.85 73.7 80.15 71.5C74.65 69.85 68.6 68.75 62 68.75C55.95 68.75 49.9 69.85 43.85 71.5C36.15 73.7 28.45 77.55 22.4 81.95C19.65 84.15 18 87.45 18 90.75V112.75H106Z" fill="#E3E3E3"/>
</svg>
